<?xml version="1.0" ?><svg enable-background="new 0 0 66 66" id="Layer_1" version="1.1" viewBox="0 0 66 66" xml:space="preserve" xmlns="http://www.w3.org/2000/svg" xmlns:xlink="http://www.w3.org/1999/xlink"><g><path d="M57.396,18.854V2c0-0.553-0.447-1-1-1h-7.272c-0.553,0-1,0.447-1,1v3.885H39.95V2c0-0.553-0.447-1-1-1H26.673   c-0.553,0-1,0.447-1,1v3.885H17.5V2c0-0.553-0.447-1-1-1H9.604c-0.553,0-1,0.447-1,1c0,11.303,0,7.881,0,16.854   c0,0.213,1.554,6.187,3.413,13.528V64c0,0.553,0.447,1,1,1c11.963,0,24.327,0,39.965,0c0.553,0,1-0.447,1-1   c0-9.491,0-21.05,0-31.618C56.549,22.252,57.396,19.066,57.396,18.854z M10.604,12.535h6.195c0.553,0,1-0.447,1-1s-0.447-1-1-1   h-6.195V3H15.5v3.885c0,0.553,0.447,1,1,1h10.174c0.553,0,1-0.447,1-1V3H37.95v3.885c0,0.553,0.447,1,1,1h10.174   c0.553,0,1-0.447,1-1V3h5.272v14.854H10.604V12.535z M10.89,19.854h44.218l-2.903,11.403h-38.41L10.89,19.854z M38.414,63H27.585   v-8.046c0-2.985,2.429-5.414,5.414-5.414s5.414,2.429,5.414,5.414V63z M40.414,63v-8.046c0-4.088-3.326-7.414-7.414-7.414   s-7.414,3.326-7.414,7.414V63H14.017V42.222h6.564c0.553,0,1-0.447,1-1s-0.447-1-1-1h-6.564v-6.964h37.965v22.834h-2.858   c-0.553,0-1,0.447-1,1s0.447,1,1,1h2.858V63H40.414z"/><path d="M50.124,39.823c0-0.553-0.447-1-1-1h-3.911c-0.553,0-1,0.447-1,1s0.447,1,1,1h3.911   C49.676,40.823,50.124,40.376,50.124,39.823z"/><path d="M33.411,43.182H29.5c-0.553,0-1,0.447-1,1s0.447,1,1,1h3.911c0.553,0,1-0.447,1-1S33.963,43.182,33.411,43.182z"/><path d="M47.948,11.769h-3.911c-0.553,0-1,0.447-1,1s0.447,1,1,1h3.911c0.553,0,1-0.447,1-1S48.5,11.769,47.948,11.769z"/><path d="M33.85,11.769h-3.911c-0.553,0-1,0.447-1,1s0.447,1,1,1h3.911c0.553,0,1-0.447,1-1S34.403,11.769,33.85,11.769z"/><path d="M40.382,37.015h-7.565c-0.553,0-1,0.447-1,1s0.447,1,1,1h7.565c0.553,0,1-0.447,1-1S40.935,37.015,40.382,37.015z"/><path d="M21.586,47.54h-3.525c-0.553,0-1,0.447-1,1s0.447,1,1,1h3.525c0.553,0,1-0.447,1-1S22.139,47.54,21.586,47.54z"/></g></svg>